# xmcd
#
# Track frame offsets:
# 150
# 15687
# 36022
# 55842
# 80145
# 102800
# 119500
# 140752
# 164350
# 188602
# 209890
# 225810
# 249492
#
# Disc length: 3740 seconds
#
# Revision: 2
# Processed by: cddbd v1.4PL0 Copyright (c) Steve Scherf et al.
# Submitted via: Axialis_AX_CDPlayer 2.6
#
DISCID=af0e9a0d
DTITLE=The Rolling Stones - Bridges to Babylon
DYEAR=1900
DGENRE=
TTITLE0=Flip the switch
TTITLE1=Anybody seen my baby?
TTITLE2=Low down
TTITLE3=Already over me
TTITLE4=Gunface
TTITLE5=You don't have to mean it
TTITLE6=Out of control
TTITLE7=Saint of me
TTITLE8=Might as well get juiced
TTITLE9=Always suffering
TTITLE10=Too tight
TTITLE11=Thief in the night
TTITLE12=How can I stop
EXTD=
EXTT0=
EXTT1=
EXTT2=
EXTT3=
EXTT4=
EXTT5=
EXTT6=
EXTT7=
EXTT8=
EXTT9=
EXTT10=
EXTT11=
EXTT12=
PLAYORDER=
